<?xml version="1.0" encoding="UTF-8" standalone="no"?><!-- Generator: Gravit.io --><svg xmlns="http://www.w3.org/2000/svg" xmlns:xlink="http://www.w3.org/1999/xlink" style="isolation:isolate" viewBox="0 0 128 128" width="128pt" height="128pt"><defs><clipPath id="_clipPath_kPgAzmMahwjqeNB8wJafoyMdvsu4k69T"><rect width="128" height="128"/></clipPath></defs><g clip-path="url(#_clipPath_kPgAzmMahwjqeNB8wJafoyMdvsu4k69T)"><rect x="0" y="0" width="128" height="128" transform="matrix(1,0,0,1,0,0)" fill="rgb(0,0,0)"/><path d=" M 22.458 41.949 L 22.458 41.949 Q 23.172 41.167 24.192 40.717 L 24.192 40.717 L 24.192 40.717 Q 25.212 40.266 26.3 40.266 L 26.3 40.266 L 26.3 40.266 Q 27.388 40.266 28.187 40.504 L 28.187 40.504 L 28.187 40.504 Q 28.986 40.742 29.632 41.15 L 29.632 41.15 L 29.632 41.15 Q 30.975 42.017 31.604 43.462 L 31.604 43.462 L 30.21 43.462 L 30.21 43.462 Q 29.7 42.544 28.791 42.026 L 28.791 42.026 L 28.791 42.026 Q 27.881 41.507 26.725 41.507 L 26.725 41.507 L 26.725 41.507 Q 25.569 41.507 24.753 41.856 L 24.753 41.856 L 24.753 41.856 Q 23.937 42.204 23.376 42.816 L 23.376 42.816 L 23.376 42.816 Q 22.22 44.074 22.22 46.029 L 22.22 46.029 L 22.22 46.029 Q 22.22 48.001 23.359 49.242 L 23.359 49.242 L 23.359 49.242 Q 24.566 50.551 26.555 50.551 L 26.555 50.551 L 26.555 50.551 Q 28.153 50.551 29.309 49.565 L 29.309 49.565 L 29.309 49.565 Q 30.533 48.528 30.533 46.828 L 30.533 46.828 L 26.419 46.828 L 26.419 45.672 L 31.706 45.672 L 31.706 51.656 L 30.533 51.656 L 30.533 49.667 L 30.533 49.667 Q 29.564 51.129 27.847 51.622 L 27.847 51.622 L 27.847 51.622 Q 27.218 51.792 26.19 51.792 L 26.19 51.792 L 26.19 51.792 Q 25.161 51.792 24.141 51.342 L 24.141 51.342 L 24.141 51.342 Q 23.121 50.891 22.407 50.109 L 22.407 50.109 L 22.407 50.109 Q 20.945 48.511 20.945 46.029 L 20.945 46.029 L 20.945 46.029 Q 20.945 43.581 22.458 41.949 L 22.458 41.949 L 22.458 41.949 Z  M 38.469 50.636 L 38.469 50.636 L 38.469 50.636 Q 40.186 50.636 40.934 49.208 L 40.934 49.208 L 42.328 49.208 L 42.328 49.208 Q 41.886 50.364 40.926 51.078 L 40.926 51.078 L 40.926 51.078 Q 39.965 51.792 38.452 51.792 L 38.452 51.792 L 38.452 51.792 Q 36.531 51.792 35.324 50.517 L 35.324 50.517 L 35.324 50.517 Q 34.151 49.276 34.151 47.406 L 34.151 47.406 L 34.151 47.406 Q 34.151 45.519 35.273 44.295 L 35.273 44.295 L 35.273 44.295 Q 36.463 43.02 38.367 43.02 L 38.367 43.02 L 38.367 43.02 Q 40.271 43.02 41.461 44.295 L 41.461 44.295 L 41.461 44.295 Q 42.583 45.519 42.583 47.406 L 42.583 47.406 L 42.583 47.916 L 35.46 47.916 L 35.46 47.916 Q 35.596 49.089 36.395 49.854 L 36.395 49.854 L 36.395 49.854 Q 37.211 50.636 38.469 50.636 Z  M 38.367 44.176 L 38.367 44.176 L 38.367 44.176 Q 37.194 44.176 36.395 44.907 L 36.395 44.907 L 36.395 44.907 Q 35.647 45.604 35.477 46.726 L 35.477 46.726 L 41.257 46.726 L 41.257 46.726 Q 41.087 45.604 40.339 44.907 L 40.339 44.907 L 40.339 44.907 Q 39.54 44.176 38.367 44.176 Z  M 45.147 43.156 L 46.422 43.156 L 46.422 44.482 L 46.422 44.482 Q 46.881 43.87 47.544 43.445 L 47.544 43.445 L 47.544 43.445 Q 48.207 43.02 49.057 43.02 L 49.057 43.02 L 49.057 43.02 Q 49.907 43.02 50.519 43.258 L 50.519 43.258 L 50.519 43.258 Q 51.131 43.496 51.59 43.972 L 51.59 43.972 L 51.59 43.972 Q 52.644 45.009 52.644 46.709 L 52.644 46.709 L 52.644 51.656 L 51.369 51.656 L 51.369 46.743 L 51.369 46.743 Q 51.369 45.57 50.706 44.873 L 50.706 44.873 L 50.706 44.873 Q 50.043 44.176 48.989 44.176 L 48.989 44.176 L 48.989 44.176 Q 47.918 44.176 47.17 44.89 L 47.17 44.89 L 47.17 44.89 Q 46.422 45.621 46.422 46.76 L 46.422 46.76 L 46.422 51.656 L 45.147 51.656 L 45.147 43.156 L 45.147 43.156 Z  M 59.56 50.636 L 59.56 50.636 L 59.56 50.636 Q 61.277 50.636 62.025 49.208 L 62.025 49.208 L 63.419 49.208 L 63.419 49.208 Q 62.977 50.364 62.017 51.078 L 62.017 51.078 L 62.017 51.078 Q 61.056 51.792 59.543 51.792 L 59.543 51.792 L 59.543 51.792 Q 57.622 51.792 56.415 50.517 L 56.415 50.517 L 56.415 50.517 Q 55.242 49.276 55.242 47.406 L 55.242 47.406 L 55.242 47.406 Q 55.242 45.519 56.364 44.295 L 56.364 44.295 L 56.364 44.295 Q 57.554 43.02 59.458 43.02 L 59.458 43.02 L 59.458 43.02 Q 61.362 43.02 62.552 44.295 L 62.552 44.295 L 62.552 44.295 Q 63.674 45.519 63.674 47.406 L 63.674 47.406 L 63.674 47.916 L 56.551 47.916 L 56.551 47.916 Q 56.687 49.089 57.486 49.854 L 57.486 49.854 L 57.486 49.854 Q 58.302 50.636 59.56 50.636 Z  M 59.458 44.176 L 59.458 44.176 L 59.458 44.176 Q 58.285 44.176 57.486 44.907 L 57.486 44.907 L 57.486 44.907 Q 56.738 45.604 56.568 46.726 L 56.568 46.726 L 62.348 46.726 L 62.348 46.726 Q 62.178 45.604 61.43 44.907 L 61.43 44.907 L 61.43 44.907 Q 60.631 44.176 59.458 44.176 Z  M 70.641 43.02 L 70.726 43.02 L 70.726 44.295 L 70.573 44.295 L 70.573 44.295 Q 69.196 44.295 68.329 45.4 L 68.329 45.4 L 68.329 45.4 Q 67.513 46.454 67.513 47.916 L 67.513 47.916 L 67.513 51.656 L 66.238 51.656 L 66.238 43.156 L 67.513 43.156 L 67.513 45.247 L 67.513 45.247 Q 67.921 43.921 69.281 43.292 L 69.281 43.292 L 69.281 43.292 Q 69.842 43.02 70.641 43.02 L 70.641 43.02 L 70.641 43.02 Z  M 79.512 51.656 L 79.512 50.296 L 79.512 50.296 Q 78.492 51.792 76.469 51.792 L 76.469 51.792 L 76.469 51.792 Q 74.633 51.792 73.477 50.517 L 73.477 50.517 L 73.477 50.517 Q 72.355 49.259 72.355 47.406 L 72.355 47.406 L 72.355 47.406 Q 72.355 45.553 73.477 44.295 L 73.477 44.295 L 73.477 44.295 Q 74.633 43.02 76.554 43.02 L 76.554 43.02 L 76.554 43.02 Q 78.475 43.02 79.512 44.533 L 79.512 44.533 L 79.512 43.156 L 80.787 43.156 L 80.787 51.656 L 79.512 51.656 L 79.512 51.656 Z  M 76.639 50.636 L 76.639 50.636 L 76.639 50.636 Q 78.016 50.636 78.815 49.684 L 78.815 49.684 L 78.815 49.684 Q 79.58 48.783 79.58 47.406 L 79.58 47.406 L 79.58 47.406 Q 79.58 46.029 78.815 45.128 L 78.815 45.128 L 78.815 45.128 Q 78.016 44.176 76.639 44.176 L 76.639 44.176 L 76.639 44.176 Q 75.279 44.176 74.429 45.128 L 74.429 45.128 L 74.429 45.128 Q 73.63 46.029 73.63 47.406 L 73.63 47.406 L 73.63 47.406 Q 73.63 48.783 74.429 49.684 L 74.429 49.684 L 74.429 49.684 Q 75.279 50.636 76.639 50.636 Z  M 86.19 51.656 L 84.915 51.656 L 84.915 44.278 L 83.181 44.278 L 83.181 43.156 L 84.915 43.156 L 84.915 40.113 L 86.19 40.113 L 86.19 43.156 L 88.145 43.156 L 88.145 44.278 L 86.19 44.278 L 86.19 51.656 L 86.19 51.656 Z  M 94.058 43.02 L 94.058 43.02 L 94.058 43.02 Q 95.962 43.02 97.152 44.295 L 97.152 44.295 L 97.152 44.295 Q 98.274 45.519 98.274 47.406 L 98.274 47.406 L 98.274 47.406 Q 98.274 49.293 97.152 50.517 L 97.152 50.517 L 97.152 50.517 Q 95.962 51.792 94.058 51.792 L 94.058 51.792 L 94.058 51.792 Q 92.154 51.792 90.964 50.517 L 90.964 50.517 L 90.964 50.517 Q 89.842 49.293 89.842 47.406 L 89.842 47.406 L 89.842 47.406 Q 89.842 45.519 90.964 44.295 L 90.964 44.295 L 90.964 44.295 Q 92.154 43.02 94.058 43.02 Z  M 94.058 50.636 L 94.058 50.636 L 94.058 50.636 Q 95.435 50.636 96.234 49.684 L 96.234 49.684 L 96.234 49.684 Q 96.999 48.783 96.999 47.406 L 96.999 47.406 L 96.999 47.406 Q 96.999 46.029 96.234 45.128 L 96.234 45.128 L 96.234 45.128 Q 95.435 44.176 94.058 44.176 L 94.058 44.176 L 94.058 44.176 Q 92.681 44.176 91.882 45.128 L 91.882 45.128 L 91.882 45.128 Q 91.117 46.029 91.117 47.406 L 91.117 47.406 L 91.117 47.406 Q 91.117 48.783 91.882 49.684 L 91.882 49.684 L 91.882 49.684 Q 92.681 50.636 94.058 50.636 Z  M 105.36 43.02 L 105.445 43.02 L 105.445 44.295 L 105.292 44.295 L 105.292 44.295 Q 103.915 44.295 103.048 45.4 L 103.048 45.4 L 103.048 45.4 Q 102.232 46.454 102.232 47.916 L 102.232 47.916 L 102.232 51.656 L 100.957 51.656 L 100.957 43.156 L 102.232 43.156 L 102.232 45.247 L 102.232 45.247 Q 102.64 43.921 104 43.292 L 104 43.292 L 104 43.292 Q 104.561 43.02 105.36 43.02 L 105.36 43.02 L 105.36 43.02 Z  M 34.644 26.044 L 35.919 26.044 L 35.919 37.298 L 34.44 37.298 L 27.487 27.795 L 27.487 37.298 L 26.212 37.298 L 26.212 26.044 L 27.691 26.044 L 34.644 35.513 L 34.644 26.044 L 34.644 26.044 Z  M 46.677 37.298 L 45.402 37.298 L 45.402 35.972 L 45.402 35.972 Q 44.943 36.584 44.28 37.009 L 44.28 37.009 L 44.28 37.009 Q 43.617 37.434 42.767 37.434 L 42.767 37.434 L 42.767 37.434 Q 41.917 37.434 41.305 37.196 L 41.305 37.196 L 41.305 37.196 Q 40.693 36.958 40.234 36.482 L 40.234 36.482 L 40.234 36.482 Q 39.18 35.445 39.18 33.745 L 39.18 33.745 L 39.18 28.798 L 40.455 28.798 L 40.455 33.711 L 40.455 33.711 Q 40.455 34.884 41.118 35.581 L 41.118 35.581 L 41.118 35.581 Q 41.781 36.278 42.835 36.278 L 42.835 36.278 L 42.835 36.278 Q 43.906 36.278 44.654 35.564 L 44.654 35.564 L 44.654 35.564 Q 45.402 34.833 45.402 33.694 L 45.402 33.694 L 45.402 28.798 L 46.677 28.798 L 46.677 37.298 L 46.677 37.298 Z  M 51.162 28.798 L 51.162 30.09 L 51.162 30.09 Q 52.012 28.662 53.746 28.662 L 53.746 28.662 L 53.746 28.662 Q 54.596 28.662 55.319 29.113 L 55.319 29.113 L 55.319 29.113 Q 56.041 29.563 56.449 30.379 L 56.449 30.379 L 56.449 30.379 Q 57.027 29.308 58.251 28.849 L 58.251 28.849 L 58.251 28.849 Q 58.744 28.662 59.365 28.662 L 59.365 28.662 L 59.365 28.662 Q 59.985 28.662 60.555 28.909 L 60.555 28.909 L 60.555 28.909 Q 61.124 29.155 61.566 29.614 L 61.566 29.614 L 61.566 29.614 Q 62.518 30.634 62.518 32.164 L 62.518 32.164 L 62.518 37.298 L 61.243 37.298 L 61.243 32.198 L 61.243 32.198 Q 61.243 31.144 60.648 30.464 L 60.648 30.464 L 60.648 30.464 Q 60.053 29.818 59.135 29.818 L 59.135 29.818 L 59.135 29.818 Q 58.166 29.818 57.52 30.447 L 57.52 30.447 L 57.52 30.447 Q 56.84 31.093 56.84 32.215 L 56.84 32.215 L 56.84 37.298 L 55.565 37.298 L 55.565 32.198 L 55.565 32.198 Q 55.565 31.144 54.97 30.464 L 54.97 30.464 L 54.97 30.464 Q 54.375 29.818 53.457 29.818 L 53.457 29.818 L 53.457 29.818 Q 52.488 29.818 51.842 30.447 L 51.842 30.447 L 51.842 30.447 Q 51.162 31.093 51.162 32.215 L 51.162 32.215 L 51.162 37.298 L 49.887 37.298 L 49.887 28.798 L 51.162 28.798 L 51.162 28.798 Z  M 66.919 25.398 L 66.919 30.175 L 66.919 30.175 Q 67.955 28.662 69.961 28.662 L 69.961 28.662 L 69.961 28.662 Q 71.797 28.662 72.936 29.937 L 72.936 29.937 L 72.936 29.937 Q 74.075 31.195 74.075 33.048 L 74.075 33.048 L 74.075 33.048 Q 74.075 34.901 72.936 36.159 L 72.936 36.159 L 72.936 36.159 Q 71.797 37.434 69.868 37.434 L 69.868 37.434 L 69.868 37.434 Q 67.938 37.434 66.919 35.938 L 66.919 35.938 L 66.919 37.298 L 65.643 37.298 L 65.643 25.398 L 66.919 25.398 L 66.919 25.398 Z  M 69.791 36.278 L 69.791 36.278 L 69.791 36.278 Q 71.151 36.278 72.002 35.326 L 72.002 35.326 L 72.002 35.326 Q 72.8 34.425 72.8 33.048 L 72.8 33.048 L 72.8 33.048 Q 72.8 31.671 72.002 30.77 L 72.002 30.77 L 72.002 30.77 Q 71.151 29.818 69.791 29.818 L 69.791 29.818 L 69.791 29.818 Q 68.414 29.818 67.615 30.77 L 67.615 30.77 L 67.615 30.77 Q 66.85 31.671 66.85 33.048 L 66.85 33.048 L 66.85 33.048 Q 66.85 34.425 67.615 35.326 L 67.615 35.326 L 67.615 35.326 Q 68.414 36.278 69.791 36.278 Z  M 80.532 36.278 L 80.532 36.278 L 80.532 36.278 Q 82.249 36.278 82.997 34.85 L 82.997 34.85 L 84.391 34.85 L 84.391 34.85 Q 83.949 36.006 82.989 36.72 L 82.989 36.72 L 82.989 36.72 Q 82.028 37.434 80.515 37.434 L 80.515 37.434 L 80.515 37.434 Q 78.594 37.434 77.387 36.159 L 77.387 36.159 L 77.387 36.159 Q 76.214 34.918 76.214 33.048 L 76.214 33.048 L 76.214 33.048 Q 76.214 31.161 77.336 29.937 L 77.336 29.937 L 77.336 29.937 Q 78.526 28.662 80.43 28.662 L 80.43 28.662 L 80.43 28.662 Q 82.334 28.662 83.524 29.937 L 83.524 29.937 L 83.524 29.937 Q 84.646 31.161 84.646 33.048 L 84.646 33.048 L 84.646 33.558 L 77.523 33.558 L 77.523 33.558 Q 77.659 34.731 78.458 35.496 L 78.458 35.496 L 78.458 35.496 Q 79.274 36.278 80.532 36.278 Z  M 80.43 29.818 L 80.43 29.818 L 80.43 29.818 Q 79.257 29.818 78.458 30.549 L 78.458 30.549 L 78.458 30.549 Q 77.71 31.246 77.54 32.368 L 77.54 32.368 L 83.32 32.368 L 83.32 32.368 Q 83.15 31.246 82.402 30.549 L 82.402 30.549 L 82.402 30.549 Q 81.603 29.818 80.43 29.818 Z  M 91.613 28.662 L 91.699 28.662 L 91.699 29.937 L 91.545 29.937 L 91.545 29.937 Q 90.169 29.937 89.301 31.042 L 89.301 31.042 L 89.301 31.042 Q 88.485 32.096 88.485 33.558 L 88.485 33.558 L 88.485 37.298 L 87.211 37.298 L 87.211 28.798 L 88.485 28.798 L 88.485 30.889 L 88.485 30.889 Q 88.893 29.563 90.253 28.934 L 90.253 28.934 L 90.253 28.934 Q 90.815 28.662 91.613 28.662 L 91.613 28.662 L 91.613 28.662 Z  M 100.365 31.076 L 99.073 31.076 L 99.073 31.076 Q 98.904 29.75 96.94 29.75 L 96.94 29.75 L 96.94 29.75 Q 94.976 29.75 94.976 30.974 L 94.976 30.974 L 94.976 30.974 Q 94.976 31.484 95.393 31.748 L 95.393 31.748 L 95.393 31.748 Q 95.809 32.011 96.438 32.181 L 96.438 32.181 L 96.438 32.181 Q 97.067 32.351 97.807 32.496 L 97.807 32.496 L 97.807 32.496 Q 98.547 32.64 99.175 32.904 L 99.175 32.904 L 99.175 32.904 Q 99.804 33.167 100.221 33.626 L 100.221 33.626 L 100.221 33.626 Q 100.637 34.085 100.637 34.884 L 100.637 34.884 L 100.637 34.884 Q 100.637 36.125 99.702 36.78 L 99.702 36.78 L 99.702 36.78 Q 98.767 37.434 97.169 37.434 L 97.169 37.434 L 97.169 37.434 Q 95.469 37.434 94.466 36.584 L 94.466 36.584 L 94.466 36.584 Q 93.548 35.836 93.48 34.629 L 93.48 34.629 L 94.806 34.629 L 94.806 34.629 Q 94.925 35.802 96.133 36.21 L 96.133 36.21 L 96.133 36.21 Q 96.574 36.346 97.008 36.346 L 97.008 36.346 L 97.008 36.346 Q 97.441 36.346 97.815 36.295 L 97.815 36.295 L 97.815 36.295 Q 98.189 36.244 98.547 36.108 L 98.547 36.108 L 98.547 36.108 Q 99.362 35.785 99.362 35.003 L 99.362 35.003 L 99.362 35.003 Q 99.362 34.476 98.946 34.196 L 98.946 34.196 L 98.946 34.196 Q 98.529 33.915 97.901 33.737 L 97.901 33.737 L 97.901 33.737 Q 97.271 33.558 96.532 33.414 L 96.532 33.414 L 96.532 33.414 Q 95.792 33.269 95.163 33.014 L 95.163 33.014 L 95.163 33.014 Q 94.535 32.759 94.118 32.317 L 94.118 32.317 L 94.118 32.317 Q 93.701 31.875 93.701 31.093 L 93.701 31.093 L 93.701 31.093 Q 93.701 29.937 94.543 29.3 L 94.543 29.3 L 94.543 29.3 Q 95.384 28.662 97.033 28.662 L 97.033 28.662 L 97.033 28.662 Q 98.597 28.662 99.499 29.41 L 99.499 29.41 L 99.499 29.41 Q 100.246 30.039 100.365 31.076 L 100.365 31.076 L 100.365 31.076 Z  M 30.469 18.622 L 30.469 22.94 L 29.194 22.94 L 29.194 11.686 L 34.583 11.686 L 34.583 11.686 Q 36.3 11.686 37.337 12.638 L 37.337 12.638 L 37.337 12.638 Q 38.374 13.573 38.374 15.205 L 38.374 15.205 L 38.374 15.205 Q 38.374 17.313 36.623 18.078 L 36.623 18.078 L 36.623 18.078 Q 36.13 18.299 35.654 18.401 L 35.654 18.401 L 38.612 22.94 L 37.099 22.94 L 34.379 18.622 L 30.469 18.622 L 30.469 18.622 Z  M 30.469 12.893 L 30.469 17.415 L 34.362 17.415 L 34.362 17.415 Q 36.164 17.415 36.844 16.293 L 36.844 16.293 L 36.844 16.293 Q 37.099 15.868 37.099 15.205 L 37.099 15.205 L 37.099 15.205 Q 37.099 14.134 36.368 13.514 L 36.368 13.514 L 36.368 13.514 Q 35.637 12.893 34.43 12.893 L 34.43 12.893 L 30.469 12.893 L 30.469 12.893 Z  M 47.721 22.94 L 47.721 21.58 L 47.721 21.58 Q 46.701 23.076 44.678 23.076 L 44.678 23.076 L 44.678 23.076 Q 42.842 23.076 41.686 21.801 L 41.686 21.801 L 41.686 21.801 Q 40.564 20.543 40.564 18.69 L 40.564 18.69 L 40.564 18.69 Q 40.564 16.837 41.686 15.579 L 41.686 15.579 L 41.686 15.579 Q 42.842 14.304 44.763 14.304 L 44.763 14.304 L 44.763 14.304 Q 46.684 14.304 47.721 15.817 L 47.721 15.817 L 47.721 14.44 L 48.996 14.44 L 48.996 22.94 L 47.721 22.94 L 47.721 22.94 Z  M 44.848 21.92 L 44.848 21.92 L 44.848 21.92 Q 46.225 21.92 47.024 20.968 L 47.024 20.968 L 47.024 20.968 Q 47.789 20.067 47.789 18.69 L 47.789 18.69 L 47.789 18.69 Q 47.789 17.313 47.024 16.412 L 47.024 16.412 L 47.024 16.412 Q 46.225 15.46 44.848 15.46 L 44.848 15.46 L 44.848 15.46 Q 43.488 15.46 42.638 16.412 L 42.638 16.412 L 42.638 16.412 Q 41.839 17.313 41.839 18.69 L 41.839 18.69 L 41.839 18.69 Q 41.839 20.067 42.638 20.968 L 42.638 20.968 L 42.638 20.968 Q 43.488 21.92 44.848 21.92 Z  M 52.206 14.44 L 53.481 14.44 L 53.481 15.766 L 53.481 15.766 Q 53.94 15.154 54.603 14.729 L 54.603 14.729 L 54.603 14.729 Q 55.266 14.304 56.116 14.304 L 56.116 14.304 L 56.116 14.304 Q 56.966 14.304 57.578 14.542 L 57.578 14.542 L 57.578 14.542 Q 58.19 14.78 58.649 15.256 L 58.649 15.256 L 58.649 15.256 Q 59.703 16.293 59.703 17.993 L 59.703 17.993 L 59.703 22.94 L 58.428 22.94 L 58.428 18.027 L 58.428 18.027 Q 58.428 16.854 57.765 16.157 L 57.765 16.157 L 57.765 16.157 Q 57.102 15.46 56.048 15.46 L 56.048 15.46 L 56.048 15.46 Q 54.977 15.46 54.229 16.174 L 54.229 16.174 L 54.229 16.174 Q 53.481 16.905 53.481 18.044 L 53.481 18.044 L 53.481 22.94 L 52.206 22.94 L 52.206 14.44 L 52.206 14.44 Z  M 69.458 22.94 L 69.458 21.58 L 69.458 21.58 Q 68.438 23.076 66.415 23.076 L 66.415 23.076 L 66.415 23.076 Q 64.579 23.076 63.423 21.801 L 63.423 21.801 L 63.423 21.801 Q 62.301 20.543 62.301 18.69 L 62.301 18.69 L 62.301 18.69 Q 62.301 16.837 63.423 15.579 L 63.423 15.579 L 63.423 15.579 Q 64.579 14.304 66.5 14.304 L 66.5 14.304 L 66.5 14.304 Q 68.421 14.304 69.458 15.817 L 69.458 15.817 L 69.458 11.04 L 70.733 11.04 L 70.733 22.94 L 69.458 22.94 L 69.458 22.94 Z  M 66.585 21.92 L 66.585 21.92 L 66.585 21.92 Q 67.962 21.92 68.761 20.968 L 68.761 20.968 L 68.761 20.968 Q 69.526 20.067 69.526 18.69 L 69.526 18.69 L 69.526 18.69 Q 69.526 17.313 68.761 16.412 L 68.761 16.412 L 68.761 16.412 Q 67.962 15.46 66.585 15.46 L 66.585 15.46 L 66.585 15.46 Q 65.225 15.46 64.375 16.412 L 64.375 16.412 L 64.375 16.412 Q 63.576 17.313 63.576 18.69 L 63.576 18.69 L 63.576 18.69 Q 63.576 20.067 64.375 20.968 L 64.375 20.968 L 64.375 20.968 Q 65.225 21.92 66.585 21.92 Z  M 77.632 14.304 L 77.632 14.304 L 77.632 14.304 Q 79.536 14.304 80.726 15.579 L 80.726 15.579 L 80.726 15.579 Q 81.848 16.803 81.848 18.69 L 81.848 18.69 L 81.848 18.69 Q 81.848 20.577 80.726 21.801 L 80.726 21.801 L 80.726 21.801 Q 79.536 23.076 77.632 23.076 L 77.632 23.076 L 77.632 23.076 Q 75.728 23.076 74.538 21.801 L 74.538 21.801 L 74.538 21.801 Q 73.416 20.577 73.416 18.69 L 73.416 18.69 L 73.416 18.69 Q 73.416 16.803 74.538 15.579 L 74.538 15.579 L 74.538 15.579 Q 75.728 14.304 77.632 14.304 Z  M 77.632 21.92 L 77.632 21.92 L 77.632 21.92 Q 79.009 21.92 79.808 20.968 L 79.808 20.968 L 79.808 20.968 Q 80.573 20.067 80.573 18.69 L 80.573 18.69 L 80.573 18.69 Q 80.573 17.313 79.808 16.412 L 79.808 16.412 L 79.808 16.412 Q 79.009 15.46 77.632 15.46 L 77.632 15.46 L 77.632 15.46 Q 76.255 15.46 75.456 16.412 L 75.456 16.412 L 75.456 16.412 Q 74.691 17.313 74.691 18.69 L 74.691 18.69 L 74.691 18.69 Q 74.691 20.067 75.456 20.968 L 75.456 20.968 L 75.456 20.968 Q 76.255 21.92 77.632 21.92 Z  M 85.806 14.44 L 85.806 15.732 L 85.806 15.732 Q 86.657 14.304 88.39 14.304 L 88.39 14.304 L 88.39 14.304 Q 89.24 14.304 89.963 14.755 L 89.963 14.755 L 89.963 14.755 Q 90.685 15.205 91.093 16.021 L 91.093 16.021 L 91.093 16.021 Q 91.672 14.95 92.895 14.491 L 92.895 14.491 L 92.895 14.491 Q 93.389 14.304 94.009 14.304 L 94.009 14.304 L 94.009 14.304 Q 94.63 14.304 95.199 14.551 L 95.199 14.551 L 95.199 14.551 Q 95.768 14.797 96.211 15.256 L 96.211 15.256 L 96.211 15.256 Q 97.163 16.276 97.163 17.806 L 97.163 17.806 L 97.163 22.94 L 95.887 22.94 L 95.887 17.84 L 95.887 17.84 Q 95.887 16.786 95.292 16.106 L 95.292 16.106 L 95.292 16.106 Q 94.697 15.46 93.78 15.46 L 93.78 15.46 L 93.78 15.46 Q 92.81 15.46 92.164 16.089 L 92.164 16.089 L 92.164 16.089 Q 91.484 16.735 91.484 17.857 L 91.484 17.857 L 91.484 22.94 L 90.209 22.94 L 90.209 17.84 L 90.209 17.84 Q 90.209 16.786 89.614 16.106 L 89.614 16.106 L 89.614 16.106 Q 89.02 15.46 88.101 15.46 L 88.101 15.46 L 88.101 15.46 Q 87.133 15.46 86.486 16.089 L 86.486 16.089 L 86.486 16.089 Q 85.806 16.735 85.806 17.857 L 85.806 17.857 L 85.806 22.94 L 84.532 22.94 L 84.532 14.44 L 85.806 14.44 L 85.806 14.44 Z " fill="rgb(255,255,255)"/><path d=" M 35 61 L 35 119 L 93 119 L 93 61 L 35 61 Z  M 51.356 110.184 C 48.804 110.184 46.716 108.096 46.716 105.544 C 46.716 102.992 48.804 100.904 51.356 100.904 C 53.908 100.904 55.996 102.992 55.996 105.544 C 55.996 108.096 53.908 110.184 51.356 110.184 Z  M 51.356 79.038 C 48.804 79.038 46.716 76.95 46.716 74.398 C 46.716 71.846 48.804 69.758 51.356 69.758 C 53.908 69.758 55.996 71.846 55.996 74.398 C 55.996 76.95 53.908 79.038 51.356 79.038 Z  M 63.942 94.582 C 61.39 94.582 59.36 92.552 59.36 90 C 59.36 87.39 61.39 85.36 63.942 85.36 C 66.552 85.36 68.582 87.39 68.582 90 C 68.582 92.552 66.552 94.582 63.942 94.582 Z  M 76.586 110.184 C 74.034 110.184 71.946 108.096 71.946 105.544 C 71.946 102.992 74.034 100.904 76.586 100.904 C 79.138 100.904 81.226 102.992 81.226 105.544 C 81.226 108.096 79.138 110.184 76.586 110.184 Z  M 76.586 79.038 C 74.034 79.038 71.946 76.95 71.946 74.398 C 71.946 71.846 74.034 69.758 76.586 69.758 C 79.138 69.758 81.226 71.846 81.226 74.398 C 81.226 76.95 79.138 79.038 76.586 79.038 Z " fill="rgb(255,153,0)"/></g></svg>